<?xml version="1.0" encoding="utf-8"?>
<svg viewBox="0 0 140 32" width="140px" height="32px" xmlns="http://www.w3.org/2000/svg">
  <defs>
    <clipPath id="A">
      <path d="M0 1089.954h1080V0H0z"/>
    </clipPath>
  </defs>
  <g clip-path="url(#A)" transform="matrix(0.029630007222, 0, 0, -0.029359007254, -0.00060999993, -1090.250731179688)" style="transform-origin: 0.000634px 1090.25px;">
    <path d="M 1076.723 541.669 C 1076.723 240.687 834.957 -3.308 536.723 -3.308 C 238.489 -3.308 -3.277 240.687 -3.277 541.669 C -3.277 842.651 238.489 1086.646 536.723 1086.646 C 834.957 1086.646 1076.723 842.651 1076.723 541.669"/>
    <path d="M543.686 475.562c-16.18 0-43.578 9.645-49.241 15.938l-.769.853c-6.365 7.066-13.579 15.075-18.969 24.506-5.537 9.69-5.501 40.286.063 52.804 1.952 4.394 20.235 42.976 60.608 45.401 6.448-.399 23.841-2.362 28.186-6.707 5.883-5.883 15.911-14.429 23.696-19.383 7.255-4.618 15.009-17.76 15.009-40.797 0-24.167-7.655-42.64-15.242-50.227-8.614-8.614-26.842-21.675-41.756-22.353-.513-.023-1.042-.035-1.585-.035m-2.294 494.533c-12.434 0-25.562-1-38.257-1.967l-1.422-.109a4.63 4.63 0 0 1-3.877-2.665 4.6 4.6 0 0 1 .385-4.655c12.013-17.225 38.429-42.992 38.695-43.25s.608-.387.951-.387a1.36 1.36 0 0 1 .976.41l43.755 44.707a3.79 3.79 0 0 1 .845 4.029c-.533 1.411-1.797 2.357-3.3 2.469-12.962.967-25.276 1.418-38.751 1.418m-59.18-110.199c.264-3.207.377-17.314-14.826-36.652-.258-.327-.723-1.049-1.593-2.404l-1.013-1.573a4.68 4.68 0 0 1-.192-4.845c.839-1.543 2.427-2.501 4.144-2.501a4.87 4.87 0 0 1 1.31.183c1.727.482 3.435.906 5.414 1.397l5.522 1.4c6.881 1.799 16.224 3.841 21.807 4.174 4.714.28 9.316.686 13.767 1.078l7.361.627a5.49 5.49 0 0 1 5.056 5.616l-2.002 76.069c-.008.309-.121.606-.32.843-.809.962-19.884 23.619-26.825 29.492-5.067 4.288-16.99 21.604-22.081 28.997-1.504 2.185-3.985 3.488-6.639 3.488a8.06 8.06 0 0 1-1.894-.225l-2.34-.562-11.215-2.765c-11.897-3.112-21.756-5.903-34.133-10.197-1.936-.672-3.209-2.43-3.245-4.479a4.79 4.79 0 0 1 3.092-4.595l3.689-1.386c7.424-2.659 12.596-4.972 14.958-6.69 2.229-1.621 4.66-3.528 7.234-5.547 4.109-3.226 8.359-6.56 12.033-8.898 4.588-2.92 7.881-9.93 8.8-12.054-1.101-1.506-5.606-6.251-18.622-6.251l-.844.007c-1.958 3.793-11.498 19.226-37.032 19.226-.391 0-.787-.004-1.186-.011-16.291-.296-26.944-3.589-34.542-10.677-8.273-7.719-13.14-20.3-15.315-39.593-1.645-14.579 2.121-27.472 10.888-37.284 8.787-9.833 22.475-15.941 35.724-15.941.992 0 1.985.035 2.952.104 25.015 1.787 39.565 13.077 45.741 35.512 2.591 1.368 14.589 7.462 22.766 7.462 1.403 0 2.611-.184 3.601-.545m135.164 104.905a10.15 10.15 0 0 1-6.761-2.575c-3.57-3.179-8.35-7.557-10.845-10.365-4.168-4.688-52.729-48.509-53.219-48.951a1.37 1.37 0 0 1-.45-1.05l1.992-75.184c.077-2.933 2.439-5.325 5.376-5.444 14.166-.577 26.99-2.242 41.581-5.397 2.964-.641 6.821-1.705 11.157-3.078 1.18-.375 3.16-.897 6.052-1.598a4.38 4.38 0 0 1 1.026-.124c1.489 0 2.888.811 3.654 2.117a4.19 4.19 0 0 1 .036 4.207c-1.332 2.378-2.298 3.891-2.952 4.624-17.428 19.546-19.899 39.128-18.902 52.114 1.358 17.706 10.181 34.88 23.601 45.942 20.758 17.112 41.209 23.563 51.552 25.884a3.35 3.35 0 0 1 2.432 2.146 3.36 3.36 0 0 1-.512 3.209l-1.597 2.055c-.16.206-.377.363-.624.45-14.039 4.936-26.905 7.855-44.41 10.075l-6.946.867a10.31 10.31 0 0 1-1.241.076m87.095-132.772a1.3 1.3 0 0 0 .687-.198l11.719-7.303c.898-.56 1.182-1.723.648-2.65-10.457-18.118-28.219-23.169-41.279-24.215l-5.598-.471a3.95 3.95 0 0 1-3.605-3.359 3.95 3.95 0 0 1 2.378-4.316l2.869-1.195c6.14-2.478 12.262-5.614 20.47-10.483 2.737-1.624 4.765-3.613 7.332-6.131 1.665-1.633 3.551-3.483 5.932-5.507a1.36 1.36 0 0 1 .885-.326 1.57 1.57 0 0 1 .136.007c.369.037.707.223.937.515l30.921 39.198 43.169 53.296c6.401 7.608 12.439 15.975 16.151 22.381a5.68 5.68 0 0 1-1.549 7.437l-3.631 2.711c-5.079 3.825-9.876 7.438-15.744 9.953-7.187 3.081-13.712 7.226-20.62 11.614-6.819 4.332-13.87 8.811-21.902 12.423a5.27 5.27 0 0 1-2.175.464 5.4 5.4 0 0 1-1.775-.3c-1.625-.562-2.853-1.824-3.37-3.462-.52-1.647-.236-3.397.778-4.801 5.902-8.167 13.397-20.994 16.303-29.711.983-2.949.522-10.12.151-15.882l-.312-5.689c-.023-.755-.652-1.206-1.245-1.206-.208 0-.411.054-.603.16l-15.05 8.333c-.023.013-.046.024-.069.035-1.269.61-2.078 1.921-2.061 3.34.139 12.107-4.989 24.318-14.069 33.503-9.883 9.997-23.373 15.502-37.986 15.502a58.3 58.3 0 0 1-2.165-.04c-35.325-1.288-48.139-26.559-51.225-34.274-3.513-8.784-9.492-31.515 10.827-52.818 18.157-19.036 30.013-19.402 45.023-19.867l1.543-.048a34.2 34.2 0 0 1 1.148-.019c13.922 0 21.118 8.376 24.576 12.402l.479.556c.244.28.597.441.971.441M298.382 721.437a4.07 4.07 0 0 1 2.317-.721c1.246 0 2.437.559 3.268 1.532l.889 1.042c9.007 10.555 32.934 38.593 54.018 57.797a.86.86 0 0 0 .581.223.88.88 0 0 0 .62-.254l13.334-13.166a1.36 1.36 0 0 1 .96-.394c.273 0 .549.082.786.249a467.19 467.19 0 0 0 10.526 7.182c5.255 3.494 9.8 5.97 14.613 8.591l4.133 2.264c.96.531 2.03 1.339 3.164 2.194l.116.088c1.641 1.237 2.522 3.2 2.357 5.25a5.93 5.93 0 0 1-3.157 4.793c-2.194 1.158-2.951 1.469-3.329 1.602-7.841 2.758-27.211 9.981-37.69 17.446-1.826 1.301-3.449 2.363-4.882 3.301-7.557 4.946-10.685 6.993-18.695 27.313-7.117 18.053 1.544 46.768 12.023 67.622.345.686.824 1.514 1.426 2.461 1.061 1.673 1.201 3.405.391 4.877-.926 1.686-2.942 2.692-5.394 2.692-4.609 0-8.115-.704-10.421-2.092-6.475-3.898-11.599-6.79-16.553-9.585-7.451-4.205-13.885-7.837-22.476-13.548-12.802-8.512-22.269-15.208-29.789-21.073-.553-.431-.69-1.21-.317-1.803 6.676-10.617 9.062-11.572 9.846-11.886 1.328-.531 2.893-2.696 3.106-5.267.123-1.488-.187-3.539-2.36-4.859-19.388-11.772-28.782-24.147-41.783-41.273l-4.617-6.086c-6.478-8.551-11.158-14.729-15.434-19.047-1.226-1.238-1.872-2.946-1.772-4.686s.939-3.371 2.302-4.465l21.412-15.355c.978-.701 2.13-1.072 3.331-1.072a5.7 5.7 0 0 1 4.4 2.066c10.31 12.427 16.852 19.667 19.443 21.518.389.277.841.413 1.382.413 2.125 0 5.361-2.135 8.052-5.311 2.268-2.679 3.287-5.091 3.12-6.091-.279-1.678-4.972-7.051-8.742-11.368s-7.672-8.786-9.839-12.218c-1.271-2.011-.822-4.625 1.037-6.117.799-.776 9.073-8.761 16.435-14.052 7.206-5.179 16.84-10.199 17.862-10.727m527.23 142.72a8.58 8.58 0 0 1-5.358-1.883c-1.93-1.553-3.356-3.484-4.237-5.74-1.148-2.734-27.349-32.488-66.75-75.799a7.53 7.53 0 0 1 .211-10.351c7.179-7.282 24.926-26.029 34.645-42.776.726-1.252.459-2.836-.638-3.768l-15.786-13.419c-.556-.472-.642-1.298-.195-1.875 1.962-2.534 3.651-4.851 5.164-7.086.826-1.22 1.669-2.547 2.655-4.178.253-.419.701-.659 1.168-.659a1.35 1.35 0 0 1 .465.082c7.448 2.7 21.447 8.279 31.515 15.303 11.275 7.866 29.17 18.949 43.549 27.854l13.454 8.371c9.873 6.216 26.441 14.003 35.437 18.09 1.62.737 2.853 2.134 3.383 3.833.527 1.689.309 3.526-.597 5.039a202.15 202.15 0 0 1-6.003 9.441c-17.528 25.886-40.804 51.095-53.119 63.818l-2.102 2.176-10.729 10.982a8.6 8.6 0 0 1-6.132 2.545m-312.959-70.186c-22.077 0-38.149-4.943-68.072-16.77-31.546-12.467-53.922-32.041-62.079-39.878-.369-.355-.509-.887-.361-1.377 1.325-4.414 5.556-8.287 9.647-12.033 2.075-1.9 4.221-3.865 5.86-5.802 5.815-6.872 22.264-24.919 22.429-25.1.239-.263.571-.421.924-.443l6.11-.382c.028-.002.057-.003.085-.003.371 0 .729.152.987.422 4.681 4.902 14.845 14.328 30.328 22.392l1.265.659c23.203 12.09 23.203 12.09 62.873 15.692.695.063 1.231.641 1.242 1.34l.868 59.534c.011.727-.551 1.335-1.277 1.382-3.84.247-7.382.367-10.829.367m53.21 2.504c-4.65 0-9.459-.14-14.294-.418-.719-.04-1.282-.633-1.287-1.353l-.414-62.935c-.005-.742.585-1.353 1.327-1.373 8.894-.246 31.145-1.302 45.638-5.776 10.58-3.265 18.626-8.64 24.499-12.565 2.462-1.645 4.587-3.065 6.34-3.941 5.144-2.572 14.921-10.674 19.374-16.054.245-.297.604-.476.989-.494.758-.035 1.498-.052 2.2-.052 4.384 0 7.52.685 9.32 2.035 2.252 1.689 3.995 4.275 6.011 7.269 2.03 3.012 4.331 6.426 7.618 9.541 3.507 3.322 8.089 6.769 12.131 9.81 3.832 2.884 7.142 5.373 9.225 7.457a68.23 68.23 0 0 0 1.251 1.211c2.587 2.464 5.032 4.791 4.1 9.444-.067.33-.254.625-.525.827-3.54 2.628-7.651 5.914-11.627 9.092l-12.562 9.76-4.145 3.074c-5.659 4.248-12.703 9.534-19.922 12.71-21.343 9.392-44.843 17.76-57.148 20.35-7.503 1.58-16.956 2.381-28.099 2.381M247.426 694.698c14.095 0 30.027-3.825 41.327-32.199a1.36 1.36 0 0 1 1.161-.856c.036-.004.072-.005.108-.005.478 0 .925.252 1.173.668a45.4 45.4 0 0 1 1.575 2.848c.894 1.778 1.95 3.447 2.971 5.061 1.305 2.063 2.538 4.012 3.424 6.123.445 1.058 1.371 2.337 2.444 3.818 1.247 1.723 2.66 3.674 3.938 6.079l.544 1.057c.263.526.161 1.161-.255 1.577-7.237 7.249-23.697 16.832-32.865 21.898-14.472 7.998-65.936 43.478-87.39 58.362-1.066.739-2.311 1.13-3.601 1.13a6.41 6.41 0 0 1-5.517-3.18c-.514-.883-1.003-1.76-1.455-2.609-1.844-3.473-3.935-6.36-5.779-8.907-1.769-2.442-3.296-4.551-4.13-6.539-1.247-2.966-3.06-5.833-4.979-8.868-1.609-2.543-3.273-5.174-4.719-8.05-1.38-2.744-2.496-5.636-3.676-8.698-1.397-3.62-2.841-7.364-4.814-11.041-.966-1.8-1.856-4.267-2.797-6.879-.717-1.992-1.459-4.051-2.263-5.883a4.72 4.72 0 0 1 .37-4.554c.904-1.384 2.413-2.211 4.035-2.211.545 0 1.088.094 1.617.279 2.73.955 5.478 2.107 7.686 3.032l3.637 1.473c1.851.674 6.708 1.675 12.505 1.675 8.686 0 23.782-2.33 27.29-17.933 1.758-7.817 3.715-11.153 6.546-11.153 2.867 0 5.125 3.795 7.515 7.814 1.51 2.54 3.072 5.165 4.393 6.066 6.929 4.725 15.554 10.605 29.981 10.605m-82.01-24.374c-7.168 0-13.378-3.767-16.611-10.076-7.847-15.315-13.847-35.119-13.659-45.086.034-1.789.123-6.54 4.578-6.885l40.763-3.16c.035-.003.071-.004.105-.004.067 0 .133.005.199.015 1.558.229 2.96 1.59 4.284 4.16 4.498 8.728 8.156 33.93 1.532 46.871-4.473 8.737-12.593 14.165-21.191 14.165m76.634-7.19c-2.355 0-5.02-.427-8.147-1.306-5.764-1.621-25.114-10.198-32.113-52.501-.325-1.961.197-3.976 1.43-5.529 1.225-1.541 3.054-2.497 5.019-2.623l44.077-2.813c.03-.002.059-.004.088-.004.672 0 1.251.494 1.35 1.168.233 1.593 5.692 39.167 2.455 51.037-2.307 8.46-6.939 12.571-14.159 12.571m479.514 52.625a6.96 6.96 0 0 1-2.424-.435c-4.335-1.609-9.123-4.563-13.137-8.105-8.656-7.638-17.851-18.237-19.692-21.921-.569-1.138-2.475-2.316-4.316-3.456-2.526-1.561-5.388-3.332-6.705-5.965-.963-1.926-1.548-4.688-1.738-8.208-.023-.427.155-.84.481-1.116 11.781-9.968 19.441-17.412 21.571-20.962 4.27-7.116 8.602-13.615 12.876-19.313 3.136-4.181 10.734-35.158 15.128-55.819.133-.628.687-1.078 1.33-1.081 8.973-.034 30.62-.205 37.8-1.05 5.435-.639 16.971-1.337 25.692-1.809.024-.002.049-.002.074-.002a1.36 1.36 0 0 1 .952.387c.273.266.423.634.412 1.016-.524 19.045-7.579 53.687-22.159 88.149-12.419 29.354-34.754 51.64-41.302 57.771-1.323 1.238-3.043 1.919-4.843 1.919m118.699-10.32c-1.267 0-2.523-.327-3.634-.946l-27.449-14.748c-2.428-1.306-3.417-4.283-2.252-6.778 5.729-12.276 23.155-51.947 27.913-72.519.266-1.149-.364-2.324-1.466-2.732l-19.893-6.635c-.631-.211-1.019-.846-.917-1.504 1.559-10.087 2.553-19.606 2.952-28.292.137-2.973 2.571-5.309 5.543-5.319l73.343-.669 12.125-.118c27.772 0 52.898 1.723 55.672 1.92 1.44.102 2.752.758 3.696 1.849a5.56 5.56 0 0 1 1.336 4.078c-1.573 21.397-5.257 40.511-8.896 58.255l-.534 2.567a4.13 4.13 0 0 1-4.017 3.268 4.09 4.09 0 0 1-1.141-.163l-12.787-3.694a4.26 4.26 0 0 0-1.178-.168c-1.797.001-3.405 1.141-3.999 2.84-5.946 16.981-26.126 73.907-36.191 93.463-1.183 2.297-3.523 3.724-6.107 3.724-1.227 0-2.435-.334-3.497-.964l-21.361-11.502a5.62 5.62 0 0 1-2.072-7.456c2.526-4.76 7.108-13.612 9.409-19.407.772-1.944.027-4.104-1.772-5.137-3.155-1.813-7.599-4.308-10.847-5.899-.392-.192-.809-.289-1.241-.289-.952 0-1.831.476-2.35 1.272l-12.172 18.39c-1.392 2.074-3.716 3.313-6.216 3.313m-481.584 10.569a4.97 4.97 0 0 1-3.893-1.864c-20.936-26.023-35.511-46.367-44.555-62.196-14.769-25.845-23.433-68.869-25.118-84.528a1.35 1.35 0 0 1 .062-.575c1.351-4.076 3.681-5.272 5.397-5.558 1.765-.294 3.871-.437 6.44-.437 6.037 0 13.315.797 20.251 1.613 7.626.898 29.465 2.949 35.976 3.557.698.065 1.233.648 1.239 1.349.042 5.779 1.678 57.746 45.488 102.265a4.55 4.55 0 0 1 .43 5.898c-1.878 2.569-4.65 5.322-7.806 7.749-5.645 4.343-10.65 10.598-13.64 14.336l-1.608 1.987c-1.178 1.414-2.603 2.51-4.111 3.669-2.156 1.659-4.386 3.374-6.484 6.371-1.665 2.378-3.42 4.218-5.217 5.469-.842.585-1.828.895-2.851.895M122.787 561.366c11.229 0 25.844-.572 41.318-1.178l46.349-1.29c22.641 0 40.219 1.036 48.393 1.923a5.56 5.56 0 0 1 4.944 5.105l.234 3.316c.172 2.555.351 5.196.613 7.267.048.379-.065.761-.311 1.052a1.37 1.37 0 0 1-.986.484c-8.657.36-52.374 2.23-62.834 3.657l-5.815.855c-14.151 2.139-40.491 6.119-75.223 6.119-1.329 0-2.676-.006-4.029-.018-.701-.006-1.284-.543-1.347-1.242-.721-7.937-1.197-16.051-1.455-24.804-.011-.378.136-.745.406-1.011a1.36 1.36 0 0 1 .958-.394c.02 0 .039.001.059.001 2.476.107 5.33.158 8.726.158m414.268 104.455c-57.799 0-98.476-46.652-111.716-78.009-12.52-29.652-6.493-58.948-2.505-78.334l1.001-4.935c3.87-19.739 30.877-56.318 41.491-59.351 3.735-1.067 9.396-3.571 15.389-6.221 10.109-4.471 21.567-9.539 30.283-10.88 4.366-.671 15.079-1.105 27.293-1.105 6.572 0 12.76.135 17.423.38 13.618.717 31.091 7.572 39.269 11.509l2.262 1.085c9.547 4.575 20.368 9.759 23.853 14.638 2.073 2.903 5.46 6.178 8.734 9.344 2.172 2.101 4.224 4.084 5.758 5.837.383.438.842.94 1.359 1.503 2.582 2.821 6.485 7.083 9.479 12.611l2.302 4.161c3.649 6.525 6.533 11.678 7.449 18.708.359 2.746.857 5.924 1.385 9.289 3.328 21.223 8.357 53.295-4.353 79.644-11.013 22.834-24.923 35.729-45.226 50.286-17.992 12.899-48.02 19.31-68.307 19.808l-2.623.032M289.16 538.336a41.43 41.43 0 0 1-.942-.011c-.605-.013-1.129-.423-1.288-1.006-7.25-26.671 11.833-79.213 20.374-100.565 3.856-9.64 11.168-20.754 16.508-28.87 2.508-3.813 4.674-7.105 5.58-8.916 1.562-3.123 8.284-7.097 13.648-9.881a6.44 6.44 0 0 1 2.916-.717c1.633 0 3.02.686 3.808 1.882 3.769 5.724 13.517 14.901 21.349 22.275 8.335 7.847 12.717 12.038 13.408 14.112.592 1.776.789 3.847.586 6.157-.016.193-.075.38-.169.549-5.358 9.543-15.091 27.938-20.08 43.903-5.101 16.322-10.048 43.385-10.804 59.095a1.36 1.36 0 0 1-.263.742c-1.807 2.463-4.242 3.765-7.042 3.765-1.299 0-2.652-.278-4.023-.826-2.422-.969-8.14-1.103-13.958-1.103l-2.991.008-2.848.007c-4.121 0-7.275-.075-9.269-.437l-.963-.176c-3.76-.688-8.439-1.545-12.165-1.545-1.796 0-3.235.199-4.279.59-1.713.642-4.1.968-7.093.968m442.685 4.288c-.376 0-.736-.155-.994-.429a1.37 1.37 0 0 1-.368-1.037c.483-6.533 1.557-29.217-4.891-46.784-3.554-9.682-7.293-17.049-10.591-23.549-3.062-6.036-5.706-11.247-7.443-16.803-1.547-4.951-7.627-12.85-17.583-22.843a1.36 1.36 0 0 1-.341-.571c-1.04-3.471-.993-6.092.139-7.79 2.092-3.138 31.126-36.545 36.2-39.364 1.166-.647 2.641-.975 4.384-.975.74 0 1.544.059 2.387.175.272.038.526.157.729.341 19.995 18.084 40.202 61.61 46.35 78.689 4.078 11.328 6.431 26.298 8.149 37.228.95 6.044 1.77 11.263 2.51 13.235 1.467 3.915 1.685 16.024 1.61 25.493-.018 2.28-1.888 4.162-4.168 4.194l-56.079.79m-67.561-144.211c-.918 0-1.79-.294-2.522-.85-11.401-8.662-52.925-37.263-108.586-41.631-1.744-.136-3.076-1.553-3.098-3.296l-.756-60.062c-.008-.656.452-1.226 1.095-1.356 4.033-.815 10.25-1.786 16.956-1.786 7.126 0 16.478 3.338 28.318 7.564 7.377 2.633 15.738 5.617 24.666 8.129 22.646 6.369 54.31 23.533 63.79 31.555 5.729 4.847 13.29 12.066 18.625 17.27.281.274.43.656.41 1.049l-.245 4.658c-.017.328-.152.639-.38.876l-35.259 36.598a4.21 4.21 0 0 1-3.014 1.282m-259.794 7.304c-3.583 0-6.083-2.002-8.953-5.232-1.338-1.505-4.017-4.406-7.12-7.765l-17.5-19.543c-1.053-1.474-1.845-3.183-2.353-5.078-.11-.408-.024-.843.232-1.18 14.107-18.543 38.136-38.82 49.933-46.685 13.812-9.208 42.276-25.127 59.858-28.643 13.149-2.63 32.717-3.713 43.211-4.125.018 0 .036-.001.054-.001.353 0 .692.137.947.383.268.258.419.615.418.987l-.516 43.607c-.186 4.821-.832 9.345-1.922 13.447-.79 2.973-3.281 5.181-6.347 5.624-5.572.806-13.601 1.853-20.206 2.265-10.158.635-55.252 14.309-84.428 50.601a1.36 1.36 0 0 1-.628.438c-1.824.614-3.311.9-4.68.9M119.468 537.391c-1.572 0-3.041-.621-4.137-1.748a5.74 5.74 0 0 1-1.639-4.197c.846-31.004 3.314-54.389 7.767-73.596 7.69-33.163 16.409-59.073 25.916-77.011 1.943-3.665 3.809-7.533 5.785-11.628 3.445-7.14 7.35-15.232 12.431-23.701 6.652-11.086 14.241-22.774 20.338-32.166l3.116-4.803c7.475-11.552 17.013-24.217 28.352-37.642 1.117-1.322 2.75-2.08 4.48-2.08a5.84 5.84 0 0 1 4.417 2.016c9.121 10.53 25.427 26.072 38.53 38.559 9.45 9.007 17.61 16.785 20.616 20.336 4.6 5.437 18.387 18.945 28.453 28.809l7.709 7.576a6.06 6.06 0 0 1 .322 8.243c-4.075 4.716-8.685 10.221-11.969 15.297-2.653 4.1-9.411 14.811-14.856 25.702-4.411 8.82-7.419 16.573-10.073 23.414l-.589 1.517c-6.189 15.944-13.204 34.015-16.721 49.184-3.254 14.034-5.329 29.214-6.002 43.9-.115 2.514-2.181 4.484-4.702 4.484l-.15-.002-10.904-.497-13.51-.614c-3.813-.132-10.569-.198-20.083-.198l-92.815.845-.082.001m762.699 5.24c-19.742 0-47.358-.415-62.062-.663-4.65-.077-8.357-3.789-8.439-8.449-.311-17.428-1.306-32.127-2.958-43.688-1.619-11.334-9.769-35.599-14.851-49.144-1.003-2.672-2.449-5.675-3.979-8.854-1.235-2.566-2.512-5.219-3.592-7.788l-4.034-9.756c-4.955-12.089-9.234-22.529-14.818-31.277-3.827-5.995-7.808-11.316-12.171-16.267-3.411-3.87-3.179-9.736.529-13.354 7.599-7.413 16.637-17.355 24.612-26.127l15.655-16.814c8.001-8.001 26.525-28.349 38.783-41.814l5.153-5.657a5.05 5.05 0 0 1 3.724-1.646c1.395 0 2.741.587 3.694 1.61l7.574 7.999c9.873 10.349 22.161 23.228 34.827 39.273l.678.858c10.135 12.836 17.459 22.109 31.766 45.489 4.676 7.642 8.406 16.918 11.74 25.803 8.013 21.354 19.055 58.848 24.315 77.636 4.23 15.106 8.097 46.824 9.195 75.42.098 2.551-1.535 4.84-3.972 5.565-4.275 1.272-11.334 1.84-22.889 1.84-5.531 0-11.502-.129-17.275-.254l-16.231-.242c-2.654 0-4.936.033-6.977.101-3.978.133-10.033.2-17.997.2M343.39 346.458a6.46 6.46 0 0 1-2.862-.674c-2.258-1.125-3.527-2.668-4.998-4.455-.577-.702-1.174-1.428-1.893-2.207-15.039-16.323-29.575-31.215-40.188-42.088l-8.61-8.843-5.103-5.402c-8.274-8.841-20.78-22.2-31.953-30.722-1.849-1.411-3.063-3.982-3.247-6.878-.172-2.71.605-5.126 2.132-6.631 5.993-5.908 12.523-11.801 18.286-17l8.202-7.479c6.967-6.517 13.951-11.552 19.563-15.598 3.382-2.438 6.302-4.543 8.565-6.482 1.089-.934 2.3-2.04 3.581-3.211 4.706-4.301 10.564-9.653 18.325-14.007 13.965-7.834 24.957-12.993 39.224-19.256 10.314-4.529 22.661-7.729 33.555-10.552l12.463-3.371c19.147-5.711 40.514-10.728 53.171-12.487l2.368-.329c11.079-1.546 31.703-4.424 54.354-6.622.211-.021.422-.031.631-.031 3.532 0 6.423 2.882 6.442 6.423l.624 117.369c.026 5.128-3.967 9.282-9.09 9.457-9.311.317-16.996.946-26.52 3.093-7.646 1.723-20.89 5.477-35.131 10.847-7.47 2.817-24.059 10.712-34.108 17.172l-8.348 5.238c-5.044 3.124-10.261 6.356-16.505 10.62-5.69 3.885-10.222 7.774-13.531 10.614l-.506.434c-1.55 1.328-3.491 2.728-5.74 4.348-3.612 2.604-8.107 5.845-12.55 10.001-3.966 3.711-10.171 10.209-15.808 16.556a6.42 6.42 0 0 1-4.795 2.153m385.681-11.512a9.25 9.25 0 0 1-6.685-2.826c-8.266-8.493-14.996-14.607-20.004-18.17-10.916-7.767-32.384-20.061-50.67-27.545-1.552-.635-4.396-1.944-7.998-3.6-6.05-2.782-14.334-6.593-19.95-8.746-13.87-5.317-35.432-12.235-49.997-14.861l-3.108-.564c-5.805-1.056-11.809-2.149-17.596-2.901a7.53 7.53 0 0 1-6.524-6.936c-.535-7.83.23-16.991.99-24.963 1.201-12.62 1.896-82.095 2.08-103.088a1.36 1.36 0 0 1 1.365-1.353c.018 0 .035 0 .052.001 13.335.507 30.491 1.846 47.07 3.673 13.608 1.5 28.56 3.615 35.249 4.629 9.454 1.432 27.917 4.637 45.345 9.999 9.312 2.865 16.906 6.18 23.009 8.845 2.989 1.304 5.571 2.431 7.728 3.226 23.349 8.602 41.775 21.908 58.031 33.647l6.895 4.955c13.048 9.285 34.992 31.542 46.91 43.983 2.45 2.557 2.47 6.57.043 9.134-1.155 1.219-2.318 2.362-3.455 3.396-7.892 7.175-38.235 41.165-48.243 52.507-6.571 7.448-22.116 23.07-33.999 34.864-1.751 1.737-4.072 2.694-6.538 2.694M541.453 108.1c-33.162 1.459-74.683 5.999-83.837 9.167-5.449 1.887-13.045 3.823-21.841 6.065-9.963 2.539-21.256 5.418-31.863 8.874-10.123 3.299-26.275 10.268-36.964 14.879l-6.653 2.855c-3.508 1.485-7.063 2.863-10.501 4.196-9.997 3.876-20.336 7.884-31.622 15.234-6.193 4.032-10.879 6.567-14.645 8.603-2.118 1.146-3.948 2.136-5.619 3.158-7.015 4.293-24.728 16.227-33.338 22.345-10.429 7.41-22.223 20.834-32.458 32.834-18.171 19.619-35.159 45.954-47.564 65.182l-2.809 4.352c-3.395 5.246-6.955 11.83-10.725 18.801l-10.523 18.778c-5.119 8.532-8.903 16.373-12.563 23.957l-5.945 11.949c-9.584 18.083-18.393 44.285-26.183 77.879-4.958 21.378-10.866 54.07-10.866 88.412 0 16.513 2.048 33.246 4.029 49.428l.485 3.97c.769 6.327 2.136 12.865 3.459 19.187 1.142 5.46 2.221 10.618 2.915 15.541 3.65 21.429 8.627 39.748 16.635 61.214 2.485 6.658 5.528 13.359 9.046 19.915 2.093 3.901 3.597 7.801 5.052 11.572 1.18 3.058 2.294 5.947 3.641 8.625 1.414 2.813 3.075 5.438 4.68 7.976 2.021 3.195 3.93 6.213 5.29 9.451.728 1.734 2.199 3.766 3.903 6.119 1.934 2.67 4.126 5.698 6.097 9.408 3.411 6.419 8.173 12.923 13.215 19.81l1.513 2.069c21.951 30.056 31.722 41.066 47.91 59.307l3.606 4.065c15.755 17.774 22.276 25.13 61.778 51.393 13.169 8.755 25.224 15.971 41.61 24.908 5.634 3.073 9.599 4.118 15.087 5.563 4.917 1.296 11.037 2.908 20.315 6.606 34.109 13.595 58.353 20.579 79.471 26.102l6.735 1.84c6.36 1.773 12.938 3.607 20.176 4.891 17.74 3.15 39.551 4.956 59.84 4.956 29.576 0 53.022-1.563 85.347-9.558 37.024-9.156 63.618-18.307 79.04-27.197.049-.029.1-.053.152-.076 4.88-2.058 8.409-3.222 13.294-4.832l.554-.183c11.685-3.854 23.6-11.086 35.124-18.079 9.248-5.614 17.983-10.915 26.623-14.618 7.912-3.391 14.127-8.263 21.324-13.904l5.387-4.187c15.756-12.048 30.323-24.574 38.968-33.507 9.52-9.836 33.77-35.824 53.277-64.633 16.54-24.427 29.655-53.491 39.232-76.082 10.17-23.991 20.6-49.854 26.582-79.017 5.722-27.9 8.504-56.416 8.504-87.179 0-28.529-5.558-68.241-8.871-89.373-2.582-16.473-15.207-66.4-22.62-81.003-1.88-3.703-3.756-8.027-5.741-12.605-1.964-4.526-3.993-9.205-6.123-13.484-9.638-19.355-16.485-27.558-21.986-34.148-3.148-3.77-5.866-7.026-8.424-11.515-12.696-22.284-30.275-39.184-43.112-51.523-4.528-4.353-8.438-8.113-11.12-11.177-10.144-11.594-49.186-46.513-66.953-59.155l-.948-.675c-18.089-12.873-40.601-28.895-66.988-38.616-2.583-.952-5.859-2.3-9.653-3.86-6.053-2.49-13.586-5.588-21.607-8.421-16.683-5.894-33.469-10.447-44.904-12.18-2.509-.38-6.098-1.169-10.253-2.082-7.5-1.648-16.835-3.7-25.597-4.665-13.218-1.457-38.384-3.9-58.477-3.902m-11.383 901.589c-33.39 0-54.424-3.785-82.701-9.558l-17.245-3.292c-22.284-4.098-43.333-7.969-67.672-20.617-16.579-8.616-57.635-30.446-80.746-47.028-31.335-22.484-42.448-33.347-54.213-44.847l-12.744-12.132-6.734-6.079c-17.629-15.842-30.367-27.289-49.442-58.445-1.921-3.137-3.97-6.314-5.953-9.385-3.552-5.505-6.908-10.705-9.493-15.572-2.001-3.765-4.265-6.892-6.264-9.652-1.908-2.636-3.557-4.912-4.454-7.05-2.316-5.513-4.948-11.587-8.493-18.638-2.373-4.717-5.129-9.813-8.048-15.208l-3.143-5.826-2.005-3.665c-3.015-5.457-6.131-11.1-7.984-17.231l-2.044-6.721c-5.533-18.148-11.254-36.914-15.121-59.616l-1.514-10.494-3.648-26.493-.512-4.194c-2.113-17.254-4.297-35.097-4.297-52.791 0-34.61 2.9-66.298 8.619-94.185 4.914-23.96 13.778-58.193 28.097-85.21 2.103-3.968 4.123-8.154 6.262-12.586 3.726-7.722 7.949-16.475 13.444-25.634l8.573-14.478 14.915-24.666c12.05-18.624 33.967-48.84 56.076-72.707 3.592-3.585 7.206-7.504 11.033-11.653 7.896-8.561 16.06-17.413 23.78-22.897 3.751-2.666 9.123-6.892 14.81-11.366 7.827-6.157 15.92-12.523 20.344-15.23 2.041-1.249 4.248-2.181 6.804-3.26 3.837-1.621 8.612-3.637 14.73-7.621 15.247-9.928 38.98-22.614 54.841-27.649 3.218-1.021 8.329-2.998 14.248-5.287 7.567-2.926 16.144-6.243 23.662-8.693 11.504-3.748 23.094-6.432 33.321-8.8 8.623-1.997 16.071-3.721 21.639-5.648 10.952-3.791 59.75-6.119 89.913-6.119 17.133 0 41.859.474 62.362 2.733 9.357 1.032 18.648 3.182 26.113 4.91 4.201.973 7.83 1.812 10.439 2.208 11.682 1.77 30.026 6.843 49.072 13.571 12.516 4.422 23.684 9.076 31.074 12.156l2.175.905c15.743 6.54 52.005 27.274 76.078 43.5 23.555 15.876 46.906 35.308 69.405 57.756 20.52 20.472 46.15 49.576 59.618 67.697 5.26 7.075 18.778 26.062 30.694 49.49 2.429 4.776 4.536 10.054 6.573 15.158 1.872 4.688 3.64 9.117 5.514 12.809 7.874 15.508 23.327 68.364 26.327 87.496l.737 4.66c3.286 20.718 9.404 59.281 9.404 88.877 0 30.712-3.278 62.264-9.742 93.78-6.352 30.972-17.837 59.4-29.056 85.864-12.369 29.176-26.764 55.966-42.786 79.627-17.649 26.063-37.649 51.218-54.872 69.012-9.267 9.574-24.837 22.966-41.651 35.823-3.681 2.815-7.26 5.383-10.721 7.866-6.51 4.671-12.132 8.705-16.253 12.805-15.769 15.692-41.664 31.281-64.434 38.791-2.917.961-4.544 1.917-6.427 3.023-1.538.903-3.128 1.838-5.557 2.863-25.165 10.619-54.01 19.173-88.184 26.149-27.82 5.68-59.967 8.56-95.546 8.56l-10.997.134m9.631-969.953c-.527 0-.96.385-1.03.916-1.165 8.936-4.689 24.453-15.185 27.95a19.4 19.4 0 0 1-6.152 1.01c-11.81 0-21.684-10.787-25.861-20.808-.236-.569-.776-.936-1.376-.936l-3.556.196c-.521.029-.94.455-.973.992-.521 8.331-3.773 28.032-22.674 31.035-2.513.399-4.918.601-7.147.601-16.867 0-23.232-11.229-28.307-22.73a1.31 1.31 0 0 0-1.196-.782c-.083 0-.166.008-.248.024l-9.842 1.898a4.73 4.73 0 0 0-3.797 4.216c-.629 7.44-2.542 30.083-19.708 32.361-2.869.38-5.425.565-7.814.565-13.168 0-19.511-6.01-24.984-15.034-.741-1.221-2.097-1.98-3.538-1.98-.513 0-1.018.094-1.499.279l-4.239 1.632c-1.875.722-3.132 2.471-3.202 4.456-.212 6.021-.856 24.344-16.523 30.153-3.818 1.416-7.696 2.134-11.525 2.134-11.912 0-20.099-6.824-23.067-9.757-.156-.154-.362-.24-.581-.24a.85.85 0 0 0-.259.042l-4.672 1.544c-.399.132-.632.529-.556.945 3.827 20.843-.31 34.419-12.297 40.351-5.447 2.697-10.785 4.063-15.866 4.063-10.46 0-17.384-5.819-20.135-10.802-.021-.037-.192-.142-.54-.142-.107 0-.214.01-.319.03-.752.145-1.712.289-2.641.429l-1.51.232c-.287.046-.537.2-.705.436s-.235.524-.186.812l.243 1.404c1.273 7.34 3.196 18.432 1.854 23.966-2.123 8.757-12.679 21.426-26.212 21.426-5.627 0-11.709-1.709-18.077-5.078-.365-.193-.773-.295-1.182-.295a2.5 2.5 0 0 0-2 .986l-3.051 3.978c-1.959 2.554-2.244 6.014-.726 8.815 4.768 8.802 3.953 17.445-2.356 24.994-4.749 5.684-11.807 8.566-20.979 8.566-4.13 0-8.669-.592-13.49-1.759-.099-.024-.199-.036-.299-.036-.654 0-1.189.511-1.217 1.163l-.363 5.912c-.063 1.029.237 2.059.845 2.9 4.445 6.142 10.041 15.769 7.351 28.404-1.294 6.078-6.315 13.323-22.889 13.323-7.023 0-14.341-1.311-19.244-2.411-.173-.039-.35-.058-.527-.058-.84 0-1.633.447-2.07 1.167l-.606 1.003c-1.311 2.173-1.068 4.933.604 6.865 4.132 4.773 6.43 8.772 6.831 11.884l.038.294c.6 4.618 2.007 15.434-4.889 23.607-5.035 5.967-13.472 9.226-25.075 9.688-.986.039-1.765.846-1.772 1.836l-.037 5.393c-.005.57.252 1.102.703 1.461 4.397 3.502 11.658 11.474 10.897 25.514-1.261 23.221-25.031 24.27-32.842 24.614-.888.039-1.591.77-1.598 1.663l-.051 6.022c-.007.78.506 1.452 1.247 1.635 10.744 2.652 16.092 9.279 15.468 19.165-.931 14.744-11.516 24.129-30.613 27.14-1.156.183-2.012 1.155-2.034 2.312l-.166 8.341c-.015.776.562 1.435 1.315 1.499 7.186.612 19.079 4.663 17.99 24.923-1.134 21.091-14.014 26.997-24.62 28.238-.809.094-1.41.786-1.399 1.61l.155 11.483c.009.684.509 1.26 1.188 1.368 6.74 1.074 18.2 5.278 19.224 21.367 1.018 15.991-10.353 23.022-20.07 26.104-1.514.481-2.5 1.904-2.399 3.462l.545 7.531c.059.738.678 1.33 1.41 1.348 7.057.169 10.843 2.265 15.756 6.331 8.655 7.162 10.706 11.422 10.448 21.704-.197 7.888-6.431 15.471-17.104 20.806-2.178 1.09-3.286 3.482-2.692 5.819l.561 2.213c.349 1.4 1.544 2.44 2.971 2.588 10.847 1.127 18.089 4.206 22.139 9.414 8.096 10.408 8.916 22.25 2.089 30.169-3.487 4.045-8.156 8.573-12.187 11.818-.22.177-.307.464-.224.729l1.123 3.502a.71.71 0 0 0 .674.494 69.32 69.32 0 0 1 4.76-.164c4.592 0 8.792.47 11.826 1.323 8.233 2.316 17.17 14.583 15.919 26.343-1.042 9.791-2.514 14.847-8.944 20.813a4.56 4.56 0 0 0-.803 5.684l.382.632c.813 1.35 2.315 2.188 3.92 2.188l.166-.002c.591-.021 1.176-.032 1.756-.032 4.283 0 8.222.568 12.045 1.736 10.838 3.312 21.078 16.07 18.723 30.908l-.109.689c-.74 4.678-1.439 9.096-3.064 12.888-1.426 3.322-.93 7.076 1.292 9.797l3.339 4.088a2.19 2.19 0 0 0 1.705.811 2.14 2.14 0 0 0 .318-.024l1.889-.28c4.453-.666 9.057-1.354 13.326-1.354 2.114 0 3.943.167 5.593.511 5.154 1.073 9.618 4.455 12.57 9.521 3.657 6.278 4.479 14.271 2.198 21.383-1.378 4.295-3.539 8.501-6.422 12.501-1.24 1.719-.941 4.121.68 5.469l2.806 2.332c.313.26.708.404 1.113.404a1.76 1.76 0 0 0 .786-.187c5.191-2.614 11.075-3.938 17.49-3.938a47.51 47.51 0 0 1 3.438.126c8.324.606 14.035 6.117 16.698 9.348 3.629 4.402 5.805 9.544 5.415 12.796-.588 4.894-2.167 9.814-4.828 15.043-1.49 2.925-.706 6.538 1.864 8.59l3.733 2.981a1.73 1.73 0 0 0 1.09.382 1.8 1.8 0 0 0 1.254-.51c3.212-3.094 6.135-5.009 8.689-5.69 3.267-.872 6.961-1.332 10.681-1.332 4.427 0 8.514.66 11.507 1.857 4.175 1.67 14.032 9.332 13.655 18.388-.297 7.144-1.52 12.71-3.847 17.518-.602 1.243-.274 2.76.796 3.69l3.14 2.725c.257.134.544.205.834.205a1.75 1.75 0 0 0 1.539-.894c3.797-6.882 10.987-15.087 23.676-15.087 1.922 0 3.937.194 5.988.576 4.896.913 8.883 3.919 11.53 8.695 5.231 9.438 4.416 23.789.995 32.501-.448 1.138.032 2.724 1.027 3.395l4.474 3.016c.139.094.277.114.368.114a.64.64 0 0 0 .54-.291c4.146-6.46 9.49-10.783 15.453-12.501a31.31 31.31 0 0 1 8.683-1.203c11.618 0 23.155 6.242 26.834 14.521 3.334 7.502 2.013 15.729.513 22.85-.328 1.56.497 3.134 1.962 3.742l4.765 1.978a2.37 2.37 0 0 0 .768.129c.871 0 1.664-.477 2.07-1.245 3.922-7.411 10.548-17.298 22.768-17.6l1.491-.019c18.925.001 24.068 9.483 25.966 23.718.529 3.97.592 8.486.553 11.576-.014 1.057.648 2.014 1.646 2.379l3.542 1.296c.097.035.19.082.277.138.273.178.596.272.936.272.56 0 1.199-.277 1.366-.896 2.25-8.367 8.116-18.663 17.245-20.139 2.242-.362 4.456-.546 6.577-.546 14.065 0 23.083 8.058 24.721 16.016.743 3.606.96 9.582.528 14.532-.092 1.063.627 2 1.673 2.18a2.06 2.06 0 0 0 .36.033c.831 0 1.583-.523 1.872-1.302l.08-.213c2.055-5.515 5.16-13.85 12.119-18.463 4.732-3.135 9.853-6.036 15.241-6.036 4.809 0 9.386 2.349 13.993 7.181 5.679 5.955 6.614 15.139 6.825 21.529.048 1.47 1.245 2.664 2.724 2.719l5.249.154a2.99 2.99 0 0 0 2.797-1.857c2.51-6.08 9.459-20.689 19.758-24.996 4.989-2.086 9.896-3.144 14.584-3.144 6.364.001 12.044 2.031 15.585 5.571 4.424 4.425 8.257 8.872 10.355 18.516.093.426.469.619.778.619a.83.83 0 0 0 .289-.053l.897-.35c.966-.382 1.965-.777 2.976-1.021.858-.207 1.547-.718 1.94-1.439.386-.709.443-1.549.159-2.365-.578-1.661-1.268-3.921-1.472-6.679-.529-7.143 5.016-14.47 10.684-17.427 4.308-2.247 9.62-3.59 14.21-3.59 3.692.001 6.935.823 9.638 2.445 5.957 3.573 13.307 11.852 16.384 18.454.243.522.775.861 1.388.883a16.7 16.7 0 0 0 .641.012 23.74 23.74 0 0 0 2.019-.093c.985-.088 1.72-.888 1.709-1.861l-.128-11.057-.143-13.699c0-2.99 3.022-6.423 5.85-8.637 3.807-2.981 8.168-4.69 11.963-4.69a12.11 12.11 0 0 1 1.762.126c4.941.727 21.7 4.487 29.905 22.365.254.553.812.924 1.389.924a1.37 1.37 0 0 0 .428-.07c.602-.198 1.118-.559 1.715-.978.96-.674 2.154-1.511 3.979-1.726.023-.011.078-.09.074-.143-.595-8.327-1.204-17.526-.892-21.268.484-5.812 8.315-17.456 10.913-18.255.943-.29 3.516-.965 7.024-.965 4.801 0 11.943 1.287 18.705 7.421 4.683 4.247 8.792 8.009 11.646 11.023.034.036.171.104.339.104.092 0 .135-.021.135-.021.614-.303 1.306-.985 1.974-1.643l.492-.481a3.96 3.96 0 0 0 1.192-3.147c-.157-2.241-.507-4.666-1.995-7.217-3.699-6.341.864-23.278 7.512-27.88 2.522-1.746 7.823-4.675 14.994-4.674 7.551 0 15.19 3.172 22.704 9.426.247.206.559.319.878.319a1.33 1.33 0 0 0 .753-.232l5.953-4.073c.445-.305.666-.842.563-1.369l-.077-.392c-1.288-6.586-2.748-14.052-2.511-19.509.502-11.525 5.635-21.377 13.078-25.098 1.725-.863 4.163-1.319 7.052-1.319 8.024.001 18.933 3.619 25.217 11.7.24.31.598.486.982.486a1.19 1.19 0 0 0 .685-.217l4.513-3.367a4.71 4.71 0 0 0 1.253-5.412c-2.52-5.954-4.791-11.623-4.907-15.541-.296-10.102 4.14-23.1 17.622-26.486 2.89-.726 5.529-1.079 8.069-1.079 8.461.001 14.108 3.988 20.097 8.806.41.33.904.504 1.429.504.599 0 1.162-.229 1.591-.646l3.086-3.421c.628-.696.714-1.729.208-2.511-4.227-6.544-9.83-16.476-9.68-27.129.236-16.742 10.328-22.707 19.695-22.707a24.7 24.7 0 0 1 3.68.283c4.425.674 10.004 2.912 16.58 6.651a3.26 3.26 0 0 0 1.608.428 3.27 3.27 0 0 0 2.86-1.687l1.55-2.802c.75-1.356.456-3.051-.699-4.031-4.908-4.159-10.703-11.374-10.434-22.127.321-12.824 9.536-22.131 21.912-22.131 6.112 0 12.605 2.318 18.777 6.705.381.271.797.413 1.203.413.688 0 1.259-.402 1.564-1.105.453-1.037 1.096-2.106 2.086-3.467 1.52-2.09 1.186-5.002-.778-6.776-5.36-4.84-12.381-12.791-11.463-25.899.951-13.585 11.367-22.362 26.538-22.36 2.65 0 5.358.285 8.048.85.189.04.382.06.573.06 1.125 0 2.146-.702 2.54-1.746l.029-.074c.42-1.107.05-2.376-.9-3.075-8.488-6.249-18.541-16.761-18.227-31.358.429-19.937 18.531-27.011 33.903-27.009l.769.005c.59.001 1.082-.336 1.274-.856.397-1.076.882-2.39.928-3.238.075-1.359-.646-2.582-1.754-2.976-5.292-1.882-22.559-9.343-22.559-26.331 0-8.124 2.941-14.33 8.742-18.448 5.89-4.179 13.165-5.057 18.23-5.056a46.61 46.61 0 0 1 1.451.023l.118.003c1.309 0 2.543-.732 3.221-1.91.98-1.704 1.84-3.963 1.957-5.142.256-2.573-1.555-4.743-4.403-5.278-11.766-2.208-18.04-9.754-18.65-22.428-.975-20.275 18.111-25.212 26.362-26.393.03-.005.052-.034.052-.069l.015-2.654c0-.088-.063-.163-.148-.175-18.626-2.709-28.615-10.869-28.889-23.596-.361-16.78 8.142-26.482 25.995-29.659.327-.058.657-.46.666-.81.03-1.09.161-2.179.288-3.232.107-.893.208-1.737.242-2.523.03-.678-.216-1.329-.694-1.832-.494-.522-1.189-.825-1.907-.832l-.611-.006c-9.705-.09-27.768-.256-28.953-18.162-1.183-17.87 9.389-25.086 17.108-30.354l1.041-.713c1.103-.758 1.591-2.144 1.244-3.531-.16-.642-.24-1.244-.317-1.826-.099-.755-.194-1.466-.459-2.254-.132-.39-.485-.653-.878-.653a1.07 1.07 0 0 0-.097.005c-2.397.255-4.599.379-6.732.379-12.093 0-20.097-4.177-23.146-12.08-5.236-13.576-1.513-27.561 9.959-37.411.337-.29.539-.694.552-1.109l.364-4.631c-2.76 1.549-6.383 1.881-8.983 1.881-.539 0-1.09-.015-1.638-.044-6.679-.351-12.462-2.66-17.188-6.86-1.447-1.286-4.764-9.754-4.354-19.619.411-9.874 4.528-18.019 11.908-23.553 2.71-2.034 4.14-3.96 2.885-7.257l-.027-.05c-.997-1.931-2.931-3.18-4.926-3.18a4.75 4.75 0 0 0-2.181.53c-3.542 1.809-7.73 2.805-11.793 2.805-8.322 0-15.252-4.002-19.511-11.27-8.721-14.876-1.626-28.554 3.379-35.383a3.19 3.19 0 0 0 .071-3.666l-3.418-4.974c-.321-.461-.925-.759-1.539-.759-.283 0-.551.065-.775.188-3.978 2.194-8.779 3.402-13.519 3.402-6.61 0-12.924-2.351-18.26-6.797-5.629-4.691-8.919-12.092-9.264-20.84-.272-6.89 1.439-14.04 4.16-17.39 1.154-1.419 1.138-4.553-.031-6.209-.624-.885-1.43-1.976-2.126-2.567a3.3 3.3 0 0 0-2.159-.796c-1.094 0-2.099.511-2.758 1.403-3.675 4.975-8.329 7.394-14.23 7.394a21.87 21.87 0 0 1-.982-.022c-7.384-.325-13.886-3.906-17.839-9.822-5.1-7.633-5.552-18.321-1.272-30.093.735-2.025.016-4.34-1.749-5.63l-1.056-.774c-.534-.391-1.164-.599-1.823-.599-.511 0-1.018.13-1.466.377-3.131 1.723-7.56 3.702-14.075 3.702a34.89 34.89 0 0 1-1.976-.058c-7.278-.42-13.006-3.097-16.563-7.74-4.61-6.018-5.659-15.244-3.117-27.423.259-1.243-.233-2.542-1.255-3.31-.52-.391-1.288-.96-1.953-1.381a3.65 3.65 0 0 0-1.95-.565 3.68 3.68 0 0 0-2.41.901c-8.445 7.304-15.895 10.854-22.776 10.854-3.32 0-6.47-.864-9.365-2.57-11.252-6.627-12.572-22.456-11.699-34.568.007-.098-.051-.191-.145-.233l-1.323-.586c-.032-.014-.065-.021-.098-.021a.24.24 0 0 0-.173.075c-2.953 3.036-8.242 6.656-16.669 6.656a31.24 31.24 0 0 1-1.746-.05c-11.645-.656-21.094-4.567-26.606-11.013-4.782-5.592-6.749-13.019-5.844-22.076.088-.873-.364-1.713-1.151-2.14l-.437-.239a3.16 3.16 0 0 0-1.517-.389 3.14 3.14 0 0 0-2.188.881l-.215.205c-4.602 4.419-10.904 10.471-21.932 10.471-3.026 0-6.275-.471-9.658-1.401-16.679-4.588-21.913-20.145-23.389-26.62a.27.27 0 0 0-.24-.214l-2.886-.217c-.237 0-.41.112-.492.291-5.135 11.294-12 17.02-20.403 17.02-.683 0-1.384-.038-2.085-.114-13.7-1.481-23.114-9.032-27.225-21.836-.872-2.715-3.274-4.591-6.12-4.781l-5.413-.361-.091-.003a1.31 1.31 0 0 0-1.268.975c-3.813 14.535-13.075 22.617-26.081 22.755l-.257.001c-18.117 0-22.433-20.1-24.752-30.899-.115-.538-.579-.915-1.128-.919l-5.815-.023z" fill="#fff"/>
  </g>
  <path d="M 43.421 16.446 L 43.421 14.227 L 44.286 14.227 Q 44.505 14.227 44.65 14.272 Q 44.795 14.318 44.9 14.463 Q 45.006 14.607 45.006 14.802 Q 45.006 14.986 44.899 15.122 Q 44.791 15.258 44.603 15.295 Q 44.837 15.336 44.957 15.485 Q 45.078 15.635 45.078 15.84 Q 45.078 16.096 44.909 16.271 Q 44.741 16.446 44.391 16.446 Z M 43.8 15.158 L 44.287 15.158 Q 44.437 15.158 44.524 15.069 Q 44.611 14.98 44.611 14.841 Q 44.611 14.689 44.512 14.616 Q 44.413 14.544 44.279 14.544 L 43.8 14.544 Z M 43.8 16.113 L 44.317 16.113 Q 44.481 16.113 44.576 16.027 Q 44.671 15.94 44.671 15.794 Q 44.671 15.654 44.574 15.565 Q 44.478 15.475 44.318 15.475 L 43.8 15.475 Z M 46.884 16.446 L 45.442 16.446 L 45.442 14.227 L 46.869 14.227 L 46.869 14.557 L 45.842 14.557 L 45.842 15.158 L 46.667 15.158 L 46.667 15.48 L 45.842 15.48 L 45.842 16.101 L 46.884 16.101 Z M 48.47 15.675 L 48.841 15.716 Q 48.805 16.049 48.583 16.265 Q 48.361 16.48 48 16.48 Q 47.696 16.48 47.507 16.327 Q 47.317 16.174 47.215 15.913 Q 47.112 15.651 47.112 15.336 Q 47.112 14.828 47.353 14.51 Q 47.594 14.193 48.015 14.193 Q 48.345 14.193 48.564 14.396 Q 48.784 14.599 48.841 14.978 L 48.47 15.017 Q 48.367 14.515 48.018 14.515 Q 47.793 14.515 47.669 14.723 Q 47.545 14.932 47.545 15.329 Q 47.545 15.732 47.678 15.938 Q 47.811 16.144 48.031 16.144 Q 48.206 16.144 48.33 16.005 Q 48.454 15.867 48.47 15.675 Z M 50.05 16.446 L 49.626 16.446 L 49.626 15.51 L 48.87 14.227 L 49.354 14.227 L 49.881 15.142 L 50.385 14.227 L 50.769 14.227 L 50.05 15.51 Z M 52.158 15.675 L 52.529 15.716 Q 52.493 16.049 52.271 16.265 Q 52.049 16.48 51.688 16.48 Q 51.384 16.48 51.195 16.327 Q 51.005 16.174 50.903 15.913 Q 50.801 15.651 50.801 15.336 Q 50.801 14.828 51.041 14.51 Q 51.282 14.193 51.703 14.193 Q 52.033 14.193 52.252 14.396 Q 52.472 14.599 52.529 14.978 L 52.158 15.017 Q 52.056 14.515 51.706 14.515 Q 51.482 14.515 51.357 14.723 Q 51.233 14.932 51.233 15.329 Q 51.233 15.732 51.366 15.938 Q 51.5 16.144 51.719 16.144 Q 51.895 16.144 52.018 16.005 Q 52.142 15.867 52.158 15.675 Z M 54.162 16.446 L 52.796 16.446 L 52.796 14.227 L 53.217 14.227 L 53.217 16.083 L 54.162 16.083 Z M 55.898 16.446 L 54.456 16.446 L 54.456 14.227 L 55.884 14.227 L 55.884 14.557 L 54.856 14.557 L 54.856 15.158 L 55.682 15.158 L 55.682 15.48 L 54.856 15.48 L 54.856 16.101 L 55.898 16.101 Z" transform="matrix(8.422574, 0.000428, -0.000432, 8.480428, -331.654236, -113.548576)" style="fill: rgb(255, 255, 255); line-height: 5.51951px;"/>
</svg>